<?xml version="1.0" encoding="UTF-8"?>
<svg width="434px" height="90px" viewBox="0 0 434 90" version="1.1" xmlns="http://www.w3.org/2000/svg" xmlns:xlink="http://www.w3.org/1999/xlink">
    <title>Logo_left_Color_White@2x</title>
    <defs>
        <linearGradient x1="11.2298847%" y1="68.5327586%" x2="89.7335551%" y2="37.7488254%" id="linearGradient-1">
            <stop stop-color="#4264EA" offset="0%"></stop>
            <stop stop-color="#40DFE0" offset="100%"></stop>
        </linearGradient>
    </defs>
    <g id="Page-2" stroke="none" stroke-width="1" fill="none" fill-rule="evenodd">
        <g id="Apple-TV-Copy-18" transform="translate(-1211.000000, -246.000000)">
            <g id="Logo_left_Color_White" transform="translate(1211.000000, 246.000000)">
                <g id="Group" fill="url(#linearGradient-1)" transform="translate(0.000000, 15.803345)">
                    <path d="M58.6196518,13.5752155 C59.3742057,13.5752155 59.7307688,14.2936423 59.4160578,15.1798667 C54.5110176,29.0451935 50.8322375,39.4441886 48.3797174,46.3768519 C46.4597549,51.8041074 42.8657198,54.7933106 37.6030404,54.7933106 L26.2177123,54.7933106 L26.2177123,54.7933106 C25.4631584,54.7933106 25.1065953,54.0748838 25.4213063,53.1886595 C30.527266,38.7553832 34.3567358,27.930426 36.9097157,20.7137879 C38.384401,16.54522 41.5507213,13.5752155 47.6699467,13.5752155 L58.6196518,13.5752155 L58.6196518,13.5752155 Z M26.2463994,33.6146619 C27.0009533,33.6146619 27.3575164,34.3330887 27.0428054,35.219313 C25.0089378,40.9466724 24.3276376,42.9030584 23.6551073,44.8225596 L23.4994521,45.2665663 C23.2034199,46.1104297 22.8894134,47.0018618 22.4461345,48.2501324 C20.8046606,52.8725136 18.3500878,54.7933106 12.8973403,54.7933106 L0.940153369,54.7933106 L0.940153369,54.7933106 C0.0540773706,54.7933106 -0.191555275,54.1328696 0.14374731,53.1886595 C1.94827289,48.107126 2.63394315,46.1447395 3.22262834,44.4619885 L3.32278642,44.1757264 L3.32278642,44.1757264 L3.42218839,43.8917639 C3.73697174,42.992835 4.05759005,42.0806801 4.54751875,40.7010438 C6.49416012,35.219313 9.56706458,33.6146619 13.8334668,33.6146619 L26.2463994,33.6146619 L26.2463994,33.6146619 Z M89.0891361,0 C89.8436901,0 90.2002532,0.718426797 89.8855422,1.60465116 C84.980502,15.4699779 81.3017218,25.868973 78.8492017,32.8016364 C76.9292393,38.2288919 73.3352042,41.2180951 68.0725248,41.2180951 L56.6871967,41.2180951 L56.6871967,41.2180951 C55.9326428,41.2180951 55.5760797,40.4996683 55.8907907,39.6134439 C60.9967504,25.1801677 64.8262202,14.3552105 67.3792001,7.13857239 C68.1634243,4.92176581 69.4260456,3.04391487 71.3567481,1.77142892 C73.0566124,0.651083607 75.2743542,0 78.1394311,0 L89.0891361,0 L89.0891361,0 Z" id="Combined-Shape"></path>
                </g>
                <g id="Group-2" transform="translate(110.000000, 25.000000)" fill="#FFFFFF" fill-rule="nonzero">
                    <path d="M4.44203507,22.0824725 L4.44203507,16.085939 L9.84321402,16.085939 C15.3079362,16.085939 20.2643122,14.4360991 20.2643122,8.21747181 C20.2643122,1.99884449 15.3079362,0.222093833 9.84321402,0.222093833 L1.23309934,0.222093833 L1.23309934,22.0824725 L4.44203507,22.0824725 Z M9.84321402,13.1352638 L4.44203507,13.1352638 L4.44203507,3.17276904 L9.84321402,3.17276904 C14.2594721,3.17276904 16.9282899,4.53705972 16.9282899,8.21747181 C16.9282899,11.8978839 14.2594721,13.1352638 9.84321402,13.1352638 Z M31.8172002,22.2093833 C34.3271598,22.2093833 37.0277493,21.7334679 38.3939299,21.0989141 L37.4725523,18.3068773 C36.169915,18.751065 34.0094434,19.1952527 31.8807435,19.1952527 C28.2587764,19.1952527 26.6384227,17.6405959 26.0983048,15.7052067 L39.3470791,15.7686621 C39.3470791,15.7686621 39.4741657,14.4678268 39.4741657,13.2621746 C39.4741657,8.28092719 35.6933404,5.86962272 31.6265704,5.86962272 C26.1618481,5.86962272 22.6669676,9.16930252 22.6669676,14.0236391 C22.6669676,18.9097035 26.352478,22.2093833 31.8172002,22.2093833 Z M25.9712183,12.7545315 C26.3842496,10.660504 28.0046033,8.88375331 31.7218853,8.88375331 C34.2636165,8.88375331 36.2016866,9.93076709 36.2334583,12.6910762 L25.9712183,12.7545315 Z M46.3248508,22.0824725 L46.3248508,10.248044 C47.7545746,9.45485173 50.2963059,8.88375331 51.8213447,8.88375331 C53.6640998,8.88375331 54.9349655,9.2327579 54.9349655,9.2327579 L55.6339416,6.250355 C55.6339416,6.250355 54.4901625,5.86962272 52.2026043,5.86962272 C49.9785895,5.86962272 47.5004015,6.75799805 46.038906,7.42427955 L45.8165045,6.12344424 L43.1476867,6.34553808 L43.1476867,22.0824725 L46.3248508,22.0824725 Z M64.1685237,22.0824725 L64.1685237,9.07411945 L70.9994264,9.07411945 L71.2535996,6.12344424 L64.1685237,6.12344424 L64.1685237,5.77443965 C64.1685237,3.74386746 64.8674998,2.9824029 67.9811206,2.9824029 C69.6332459,2.9824029 71.0947414,3.23622442 71.3806861,3.2996798 L71.7937175,0.412459975 C71.1900563,0.285549213 69.4743877,0 67.7587191,0 C64.6133266,0 60.9913596,0.920103021 60.9913596,5.77443965 L60.9913596,6.12344424 L58.2907701,6.12344424 L58.036597,9.07411945 L60.9913596,9.07411945 L60.9913596,22.0824725 L64.1685237,22.0824725 Z M82.234598,22.2093833 C87.8899501,22.2093833 91.702547,18.9097035 91.702547,14.0236391 C91.702547,9.16930252 87.8899501,5.86962272 82.234598,5.86962272 C76.5792459,5.86962272 72.7984207,9.16930252 72.7984207,14.0236391 C72.7984207,18.9097035 76.5792459,22.2093833 82.234598,22.2093833 Z M82.234598,19.163525 C76.6427892,19.163525 76.039128,15.4831129 76.039128,14.0236391 C76.039128,12.5641654 76.6427892,8.915481 82.234598,8.915481 C87.8264068,8.915481 88.430068,12.5641654 88.430068,14.0236391 C88.430068,15.4831129 87.8264068,19.163525 82.234598,19.163525 Z M98.5850038,22.0824725 L98.5850038,10.248044 C100.014728,9.45485173 102.556459,8.88375331 104.081498,8.88375331 C105.924253,8.88375331 107.195118,9.2327579 107.195118,9.2327579 L107.894095,6.250355 C107.894095,6.250355 106.750315,5.86962272 104.462757,5.86962272 C102.238742,5.86962272 99.7605545,6.75799805 98.299059,7.42427955 L98.0766575,6.12344424 L95.4078397,6.34553808 L95.4078397,22.0824725 L98.5850038,22.0824725 Z M114.74478,22.0824725 L114.74478,10.1528609 C116.396905,9.42312404 118.748006,8.88375331 120.241274,8.88375331 C123.895012,8.88375331 124.657532,10.4384101 124.657532,13.1669915 L124.657532,22.0824725 L127.866467,22.0824725 L127.866467,13.1669915 C127.866467,11.9296116 127.675837,10.8191424 127.294578,9.8990394 C128.914931,9.29621328 131.01186,8.88375331 132.314497,8.88375331 C135.968236,8.88375331 136.730755,10.4384101 136.730755,13.1669915 L136.762527,22.0824725 L139.939691,22.0824725 L139.939691,13.1669915 C139.939691,8.50302102 137.175558,5.86962272 132.695757,5.86962272 C130.217569,5.86962272 127.167491,6.98009188 125.801311,7.67810107 C124.530445,6.50417653 122.751233,5.86962272 120.590762,5.86962272 C118.398518,5.86962272 115.952102,6.75799805 114.458835,7.42427955 L114.236433,6.12344424 L111.535844,6.34553808 L111.535844,22.0824725 L114.74478,22.0824725 Z M152.4775,22.2093833 C154.701515,22.2093833 156.925529,21.5113741 158.48234,20.7181818 L158.704741,22.0824725 L161.405331,22.0824725 L161.405331,6.34553808 L158.704741,6.18689962 L158.450568,7.42427955 C156.989073,6.75799805 154.574428,5.86962272 152.382185,5.86962272 C146.949234,5.86962272 143.58144,9.16930252 143.58144,14.0236391 C143.58144,18.9097035 147.012777,22.2093833 152.4775,22.2093833 Z M152.763444,19.1952527 C147.83884,19.1952527 146.790376,16.6570374 146.790376,14.0236391 C146.790376,11.3902408 147.83884,8.88375331 152.763444,8.88375331 C154.288483,8.88375331 156.576041,9.42312404 158.196395,10.1845886 L158.196395,17.9896004 C156.957301,18.4655158 154.765058,19.1952527 152.763444,19.1952527 Z M169.49511,22.0824725 L169.49511,10.1528609 C171.179007,9.42312404 173.720738,8.88375331 175.214005,8.88375331 C179.75735,8.88375331 180.519869,10.4384101 180.519869,13.1669915 L180.551641,22.0824725 L183.728805,22.0824725 L183.728805,13.1669915 C183.728805,8.50302102 180.646956,5.86962272 175.563493,5.86962272 C173.403022,5.86962272 170.734204,6.75799805 169.209165,7.42427955 L168.986764,6.18689962 L166.286174,6.34553808 L166.286174,22.0824725 L169.49511,22.0824725 Z M196.711417,22.2093833 C199.253148,22.2093833 201.318305,21.5748295 202.938658,20.7181818 L201.731336,18.0213281 C200.587557,18.4972435 198.840117,19.1952527 196.711417,19.1952527 C192.072757,19.1952527 190.57949,16.3714882 190.57949,14.0236391 C190.57949,11.7075178 192.072757,8.88375331 196.711417,8.88375331 C198.268227,8.88375331 200.238069,9.45485173 201.41362,9.96249478 L202.652714,7.17045803 C201.254761,6.53590422 199.09429,5.86962272 196.711417,5.86962272 C191.056065,5.86962272 187.370554,9.16930252 187.370554,14.0236391 C187.370554,18.9097035 191.056065,22.2093833 196.711417,22.2093833 Z M214.491546,22.2093833 C217.001506,22.2093833 219.702096,21.7334679 221.068276,21.0989141 L220.146899,18.3068773 C218.844261,18.751065 216.68379,19.1952527 214.55509,19.1952527 C210.933123,19.1952527 209.312769,17.6405959 208.772651,15.7052067 L222.021425,15.7686621 C222.021425,15.7686621 222.148512,14.4678268 222.148512,13.2621746 C222.148512,8.28092719 218.367687,5.86962272 214.300917,5.86962272 C208.836194,5.86962272 205.341314,9.16930252 205.341314,14.0236391 C205.341314,18.9097035 209.026824,22.2093833 214.491546,22.2093833 Z M208.645565,12.7545315 C209.058596,10.660504 210.67895,8.88375331 214.396232,8.88375331 C216.937963,8.88375331 218.876033,9.93076709 218.907805,12.6910762 L208.645565,12.7545315 Z M253.514914,15.165836 C253.514914,10.5335932 248.812712,9.48657942 244.078737,9.20103021 C240.297912,8.94720869 237.088976,8.59820409 237.088976,6.37726577 C237.088976,3.83905054 239.694251,3.10931366 243.538619,3.10931366 C245.794406,3.10931366 249.193971,3.64868439 250.623695,3.9659613 L251.163813,1.04701378 C249.1622,0.507643046 246.429839,0.126910762 243.538619,0.126910762 C238.645787,0.126910762 233.721182,1.45947376 233.721182,6.50417653 C233.721182,11.3902408 238.963503,12.08825 243.792792,12.4055269 C248.272594,12.6910762 250.210664,13.5159961 250.210664,15.4513852 C250.210664,18.6241543 246.556925,19.1952527 242.712557,19.1952527 C239.726022,19.1952527 236.453543,18.5924266 234.769646,18.0847835 L233.943584,20.9402757 C236.612402,21.7651956 239.249448,22.2093833 242.934958,22.2093833 C248.018421,22.2093833 253.514914,20.8133649 253.514914,15.165836 Z M264.908944,22.2093833 C266.646399,22.2093833 268.122108,21.991563 268.577005,21.9168817 L268.656307,21.9035912 C268.699132,21.8962504 268.721541,21.8921064 268.721541,21.8921064 L268.403825,18.9414312 C268.403825,18.9414312 266.942329,19.1952527 265.099574,19.1952527 C262.398985,19.1952527 261.159891,18.751065 261.159891,16.4032159 L261.159891,9.07411945 L267.959022,9.07411945 L268.244967,6.12344424 L261.159891,6.12344424 L261.159891,2.37957678 L259.190049,2.60167061 L258.141585,6.12344424 L255.72694,6.12344424 L255.472767,9.07411945 L257.982727,9.07411945 L257.982727,16.4032159 C257.982727,21.2892802 261.54115,22.2093833 264.908944,22.2093833 Z M280.115571,22.2093833 C285.770923,22.2093833 289.58352,18.9097035 289.58352,14.0236391 C289.58352,9.16930252 285.770923,5.86962272 280.115571,5.86962272 C274.460219,5.86962272 270.679394,9.16930252 270.679394,14.0236391 C270.679394,18.9097035 274.460219,22.2093833 280.115571,22.2093833 Z M280.115571,19.163525 C274.523762,19.163525 273.920101,15.4831129 273.920101,14.0236391 C273.920101,12.5641654 274.523762,8.915481 280.115571,8.915481 C285.70738,8.915481 286.311041,12.5641654 286.311041,14.0236391 C286.311041,15.4831129 285.70738,19.163525 280.115571,19.163525 Z M296.465977,22.0824725 L296.465977,10.248044 C297.895701,9.45485173 300.437432,8.88375331 301.962471,8.88375331 C303.805226,8.88375331 305.076091,9.2327579 305.076091,9.2327579 L305.775067,6.250355 C305.775067,6.250355 304.631288,5.86962272 302.34373,5.86962272 C300.119715,5.86962272 297.641527,6.75799805 296.180032,7.42427955 L295.95763,6.12344424 L293.288813,6.34553808 L293.288813,22.0824725 L296.465977,22.0824725 Z M315.326342,28.6183767 L324,6.12344424 L320.409805,6.2820827 L315.86646,19.0683419 L311.323115,6.18689962 L307.828235,6.34553808 L313.92839,22.0824725 L314.595594,22.0824725 L311.704375,28.6183767 L315.326342,28.6183767 Z" id="PerformanceStory"></path>
                    <path d="M4.73337502,43 C6.20626034,43 7.1126513,42.7988584 8.13234113,42.3965752 L7.57843554,40.9005847 C6.92381985,41.1394403 5.91671878,41.378296 4.73337502,41.378296 C2.45480886,41.378296 1.71207182,40.1463038 1.71207182,38.6251705 C1.71207182,37.1040373 2.45480886,35.8846165 4.73337502,35.8846165 C5.63976599,35.8846165 6.83569851,36.1109007 7.37701533,36.2617569 L7.83021081,34.715481 C7.04970748,34.4514827 5.87895249,34.2629124 4.73337502,34.2629124 C2.03937966,34.2629124 0,35.6331895 0,38.6251705 C0,41.629723 2.03937966,43 4.73337502,43 Z M14.5651992,42.9497146 L14.5651992,40.586301 L16.49128,40.586301 L18.3040619,42.9497146 L20.4441517,42.9497146 L18.3292395,40.334874 C19.5881158,39.9577335 20.5196843,39.1154532 20.5196843,37.4686064 C20.5196843,34.9920507 18.4299496,34.3006265 16.2646823,34.3006265 L12.8657162,34.3006265 L12.8657162,42.9497146 L14.5651992,42.9497146 Z M16.2646823,38.9771683 L14.5651992,38.9771683 L14.5651992,35.9097592 L16.2646823,35.9097592 C18.0271091,35.9097592 18.8076125,36.4754699 18.8076125,37.4686064 C18.8076125,38.4491717 18.0271091,38.9771683 16.2646823,38.9771683 Z M32.0006365,42.9497146 L32.1517016,41.3405819 L26.9399536,41.3405819 L26.9399536,39.2411666 L30.2885647,39.2411666 L30.4396298,37.632034 L26.9399536,37.632034 L26.9399536,35.9097592 L32.0006365,35.9097592 L32.1517016,34.3006265 L25.2404705,34.3006265 L25.2404705,42.9497146 L32.0006365,42.9497146 Z M38.0432429,42.9497146 L38.6726811,41.1017263 L42.3360112,41.1017263 L42.9654494,42.9497146 L44.7530538,42.9497146 L41.6436292,34.3006265 L39.314708,34.42634 L36.2556385,42.9497146 L38.0432429,42.9497146 Z M41.7946944,39.4925936 L39.2139979,39.4925936 L40.5106405,35.7211889 L41.7946944,39.4925936 Z M52.6839747,42.9497146 L52.6839747,35.9097592 L55.9066981,35.9097592 L56.0451745,34.3006265 L47.7617682,34.3006265 L47.6232918,35.9097592 L50.9844916,35.9097592 L50.9844916,42.9497146 L52.6839747,42.9497146 Z M67.349884,42.9497146 L67.5009492,41.3405819 L62.2892011,41.3405819 L62.2892011,39.2411666 L65.6378122,39.2411666 L65.7888773,37.632034 L62.2892011,37.632034 L62.2892011,35.9097592 L67.349884,35.9097592 L67.5009492,34.3006265 L60.5897181,34.3006265 L60.5897181,42.9497146 L67.349884,42.9497146 Z M83.4383236,42.9497146 L83.4383236,39.6811639 L83.5390337,39.6811639 L86.8498784,34.3131978 L84.6468449,34.42634 L82.5445214,38.1348879 L80.3918428,34.3131978 L78.3272856,34.42634 L81.5751866,39.6811639 L81.7388405,39.6811639 L81.7388405,42.9497146 L83.4383236,42.9497146 Z M95.1836398,43 C97.8902239,43 99.9673699,41.629723 99.9673699,38.6377419 C99.9673699,35.6331895 97.8902239,34.2629124 95.1836398,34.2629124 C92.4896444,34.2629124 90.4124985,35.6331895 90.4124985,38.6377419 C90.4124985,41.629723 92.4896444,43 95.1836398,43 Z M95.1836398,41.378296 C92.9050736,41.378296 92.1245703,40.1588751 92.1245703,38.6377419 C92.1245703,37.1166087 92.9050736,35.8846165 95.1836398,35.8846165 C97.4747947,35.8846165 98.2427093,37.1166087 98.2427093,38.6377419 C98.2427093,40.1588751 97.4747947,41.378296 95.1836398,41.378296 Z M109.157167,43 C111.851162,43 113.626178,41.6925797 113.626178,38.461743 L113.626178,34.3006265 L111.914106,34.3006265 L111.914106,38.461743 C111.914106,40.2091605 111.448322,41.378296 109.157167,41.378296 C106.866012,41.378296 106.400228,40.2091605 106.400228,38.461743 L106.400228,34.3006265 L104.700745,34.3006265 L104.700745,38.461743 C104.700745,41.6925797 106.463172,43 109.157167,43 Z M120.361167,42.9497146 L120.361167,40.586301 L122.287247,40.586301 L124.100029,42.9497146 L126.240119,42.9497146 L124.125207,40.334874 C125.384083,39.9577335 126.315652,39.1154532 126.315652,37.4686064 C126.315652,34.9920507 124.225917,34.3006265 122.06065,34.3006265 L118.661683,34.3006265 L118.661683,42.9497146 L120.361167,42.9497146 Z M122.06065,38.9771683 L120.361167,38.9771683 L120.361167,35.9097592 L122.06065,35.9097592 C123.823076,35.9097592 124.60358,36.4754699 124.60358,37.4686064 C124.60358,38.4491717 123.823076,38.9771683 122.06065,38.9771683 Z M142.227848,43 C144.934433,43 147.011579,41.629723 147.011579,38.6377419 C147.011579,35.6331895 144.934433,34.2629124 142.227848,34.2629124 C139.533853,34.2629124 137.456707,35.6331895 137.456707,38.6377419 C137.456707,41.629723 139.533853,43 142.227848,43 Z M142.227848,41.378296 C139.949282,41.378296 139.168779,40.1588751 139.168779,38.6377419 C139.168779,37.1166087 139.949282,35.8846165 142.227848,35.8846165 C144.519003,35.8846165 145.286918,37.1166087 145.286918,38.6377419 C145.286918,40.1588751 144.519003,41.378296 142.227848,41.378296 Z M155.44605,42.9497146 L157.523196,37.1543227 L159.625519,42.9497146 L161.841142,42.9497146 L164.346306,34.3006265 L162.533524,34.4011973 L160.645209,41.3531533 L158.303699,34.3383405 L156.730104,34.4137686 L154.413771,41.3657246 L152.512868,34.3257692 L150.750441,34.42634 L153.217839,42.9497146 L155.44605,42.9497146 Z M170.464445,42.9497146 L170.376323,36.8274676 L174.329195,42.9497146 L176.355986,42.9497146 L176.355986,34.3006265 L174.656503,34.3006265 L174.719447,40.4228735 L170.779164,34.3006265 L168.752373,34.3006265 L168.752373,42.9497146 L170.464445,42.9497146 Z M191.412147,43 C193.426349,43 195.692326,42.4091466 195.692326,40.1714465 C195.692326,38.3114582 193.994716,37.8374612 192.208993,37.6888754 L191.953464,37.669748 L191.953464,37.669748 C190.455401,37.5817486 189.523832,37.3051789 189.523832,36.7771822 C189.523832,36.2491856 190.253981,35.8846165 191.78981,35.8846165 C192.683612,35.8846165 194.03061,36.085758 194.584515,36.2240429 L194.937001,34.6400529 C194.13132,34.42634 192.922799,34.2629124 191.78981,34.2629124 C189.85114,34.2629124 187.811761,34.8286231 187.811761,36.840039 C187.811761,38.7634554 189.926673,39.1783099 191.852754,39.291452 C193.615181,39.4045942 193.980255,39.756592 193.980255,40.2845886 C193.980255,41.2022971 192.859855,41.378296 191.324026,41.378296 C190.140682,41.378296 188.844039,41.126869 188.176835,40.9382988 L187.723639,42.4720033 C188.781095,42.8114298 189.95185,43 191.412147,43 Z M204.642937,42.9497146 L204.642937,35.9097592 L207.865661,35.9097592 L208.004137,34.3006265 L199.720731,34.3006265 L199.582254,35.9097592 L202.943454,35.9097592 L202.943454,42.9497146 L204.642937,42.9497146 Z M216.652617,43 C219.359202,43 221.436348,41.629723 221.436348,38.6377419 C221.436348,35.6331895 219.359202,34.2629124 216.652617,34.2629124 C213.958622,34.2629124 211.881476,35.6331895 211.881476,38.6377419 C211.881476,41.629723 213.958622,43 216.652617,43 Z M216.652617,41.378296 C214.374051,41.378296 213.593548,40.1588751 213.593548,38.6377419 C213.593548,37.1166087 214.374051,35.8846165 216.652617,35.8846165 C218.943772,35.8846165 219.711687,37.1166087 219.711687,38.6377419 C219.711687,40.1588751 218.943772,41.378296 216.652617,41.378296 Z M227.856617,42.9497146 L227.856617,40.586301 L229.782698,40.586301 L231.59548,42.9497146 L233.735569,42.9497146 L231.620657,40.334874 C232.879533,39.9577335 233.811102,39.1154532 233.811102,37.4686064 C233.811102,34.9920507 231.721367,34.3006265 229.5561,34.3006265 L226.157134,34.3006265 L226.157134,42.9497146 L227.856617,42.9497146 Z M229.5561,38.9771683 L227.856617,38.9771683 L227.856617,35.9097592 L229.5561,35.9097592 C231.318527,35.9097592 232.09903,36.4754699 232.09903,37.4686064 C232.09903,38.4491717 231.318527,38.9771683 229.5561,38.9771683 Z M242.497349,42.9497146 L242.497349,39.6811639 L242.598059,39.6811639 L245.908904,34.3131978 L243.70587,34.42634 L241.603546,38.1348879 L239.450868,34.3131978 L237.386311,34.42634 L240.634212,39.6811639 L240.797866,39.6811639 L240.797866,42.9497146 L242.497349,42.9497146 Z" id="CREATEYOUROWNSTORY"></path>
                </g>
            </g>
        </g>
    </g>
</svg>