<?xml version="1.0" encoding="UTF-8"?>
<svg width="409px" height="166px" viewBox="0 0 409 166" version="1.1" xmlns="http://www.w3.org/2000/svg" xmlns:xlink="http://www.w3.org/1999/xlink">
    <title>Logo_centered_Color_White@2x</title>
    <defs>
        <linearGradient x1="11.2298847%" y1="68.3171745%" x2="89.7335551%" y2="37.8913383%" id="linearGradient-1">
            <stop stop-color="#4264EA" offset="0%"></stop>
            <stop stop-color="#40DFE0" offset="100%"></stop>
        </linearGradient>
    </defs>
    <g id="Page-2" stroke="none" stroke-width="1" fill="none" fill-rule="evenodd">
        <g id="Apple-TV-Copy-7" transform="translate(-1236.000000, -200.000000)">
            <g id="Logo_centered_Color_White" transform="translate(1236.000000, 200.000000)">
                <g id="Group-2-Copy" transform="translate(0.000000, 104.000000)" fill="#FFFFFF" fill-rule="nonzero">
                    <path d="M4.06626178,28.1822475 L4.06626178,20.5293096 L10.9104648,20.5293096 C17.8351878,20.5293096 24.1157506,18.4237394 24.1157506,10.4873594 C24.1157506,2.5509793 17.8351878,0.283442145 10.9104648,0.283442145 L0,0.283442145 L0,28.1822475 L4.06626178,28.1822475 Z M10.9104648,16.7635783 L4.06626178,16.7635783 L4.06626178,4.0491735 L10.9104648,4.0491735 C16.5066072,4.0491735 19.8884487,5.7903181 19.8884487,10.4873594 C19.8884487,15.1844006 16.5066072,16.7635783 10.9104648,16.7635783 Z M38.7552045,28.3442145 C41.9357459,28.3442145 45.3578474,27.7368384 47.0890282,26.9270038 L45.9214877,23.3637311 C44.2708269,23.9306154 41.5331457,24.4974997 38.8357246,24.4974997 C34.2460826,24.4974997 32.1928217,22.5134046 31.5084014,20.0434088 L48.2968287,20.1243923 C48.2968287,20.1243923 48.4578688,18.4642311 48.4578688,16.9255452 C48.4578688,10.5683428 43.6669267,7.49097097 38.5136444,7.49097097 C31.5889214,7.49097097 27.1603195,11.7021114 27.1603195,17.8973469 C27.1603195,24.133074 31.8304815,28.3442145 38.7552045,28.3442145 Z M31.3473613,16.2776775 C31.8707415,13.6052229 33.9240024,11.3376858 38.6344245,11.3376858 C41.8552259,11.3376858 44.311087,12.673913 44.351347,16.196694 L31.3473613,16.2776775 Z M57.1388401,28.1822475 L57.1388401,13.0788304 C58.9505409,12.066537 62.1713423,11.3376858 64.1038232,11.3376858 C66.4389042,11.3376858 68.0493049,11.7830949 68.0493049,11.7830949 L68.9350253,7.97687179 C68.9350253,7.97687179 67.4856647,7.49097097 64.5869434,7.49097097 C61.7687422,7.49097097 58.6284608,8.62473955 56.7765,9.47506598 L56.4946799,7.81490485 L53.1128384,8.09834699 L53.1128384,28.1822475 L57.1388401,28.1822475 Z M79.7497776,28.1822475 L79.7497776,11.5806362 L88.4056814,11.5806362 L88.7277615,7.81490485 L79.7497776,7.81490485 L79.7497776,7.36949576 C79.7497776,4.77802473 80.635498,3.80622309 84.5809797,3.80622309 C86.6745006,3.80622309 88.5264614,4.13015697 88.8888016,4.21114044 L89.4121818,0.526392555 C88.6472415,0.364425615 86.4732005,0 84.2991596,0 C80.3134178,0 75.7237758,1.17426031 75.7237758,7.36949576 L75.7237758,7.81490485 L72.3016743,7.81490485 L71.9795942,11.5806362 L75.7237758,11.5806362 L75.7237758,28.1822475 L79.7497776,28.1822475 Z M102.642535,28.3442145 C109.808818,28.3442145 114.64002,24.133074 114.64002,17.8973469 C114.64002,11.7021114 109.808818,7.49097097 102.642535,7.49097097 C95.476252,7.49097097 90.6853099,11.7021114 90.6853099,17.8973469 C90.6853099,24.133074 95.476252,28.3442145 102.642535,28.3442145 Z M102.642535,24.4570079 C95.5567721,24.4570079 94.7918317,19.7599667 94.7918317,17.8973469 C94.7918317,16.034727 95.5567721,11.3781775 102.642535,11.3781775 C109.728298,11.3781775 110.493239,16.034727 110.493239,17.8973469 C110.493239,19.7599667 109.728298,24.4570079 102.642535,24.4570079 Z M123.361252,28.1822475 L123.361252,13.0788304 C125.172953,12.066537 128.393754,11.3376858 130.326235,11.3376858 C132.661316,11.3376858 134.271717,11.7830949 134.271717,11.7830949 L135.157437,7.97687179 C135.157437,7.97687179 133.708076,7.49097097 130.809355,7.49097097 C127.991154,7.49097097 124.850872,8.62473955 122.998912,9.47506598 L122.717092,7.81490485 L119.33525,8.09834699 L119.33525,28.1822475 L123.361252,28.1822475 Z M143.838408,28.1822475 L143.838408,12.9573552 C145.931929,12.0260453 148.911171,11.3376858 150.803391,11.3376858 C155.433293,11.3376858 156.399534,13.3217808 156.399534,16.80407 L156.399534,28.1822475 L160.465796,28.1822475 L160.465796,16.80407 C160.465796,15.2248923 160.224236,13.8076816 159.741115,12.6334213 C161.794376,11.8640783 164.451537,11.3376858 166.102198,11.3376858 C170.7321,11.3376858 171.698341,13.3217808 171.698341,16.80407 L171.738601,28.1822475 L175.764602,28.1822475 L175.764602,16.80407 C175.764602,10.851785 172.261981,7.49097097 166.585318,7.49097097 C163.445037,7.49097097 159.580075,8.90818169 157.848894,9.79899986 C156.238494,8.30080567 153.983933,7.49097097 151.246252,7.49097097 C148.46831,7.49097097 145.368289,8.62473955 143.476068,9.47506598 L143.194248,7.81490485 L139.772147,8.09834699 L139.772147,28.1822475 L143.838408,28.1822475 Z M191.652117,28.3442145 C194.470318,28.3442145 197.288519,27.4533963 199.26126,26.4411029 L199.54308,28.1822475 L202.965182,28.1822475 L202.965182,8.09834699 L199.54308,7.89588832 L199.221,9.47506598 C197.369039,8.62473955 194.309278,7.49097097 191.531337,7.49097097 C184.646874,7.49097097 180.379312,11.7021114 180.379312,17.8973469 C180.379312,24.133074 184.727394,28.3442145 191.652117,28.3442145 Z M192.014457,24.4974997 C185.774154,24.4974997 184.445574,21.2581609 184.445574,17.8973469 C184.445574,14.5365329 185.774154,11.3376858 192.014457,11.3376858 C193.946938,11.3376858 196.845659,12.0260453 198.89892,12.9978469 L198.89892,22.9588137 C197.328779,23.5661897 194.550838,24.4974997 192.014457,24.4974997 Z M213.216294,28.1822475 L213.216294,12.9573552 C215.350075,12.0260453 218.570876,11.3376858 220.463097,11.3376858 C226.22028,11.3376858 227.18652,13.3217808 227.18652,16.80407 L227.22678,28.1822475 L231.252782,28.1822475 L231.252782,16.80407 C231.252782,10.851785 227.34756,7.49097097 220.905957,7.49097097 C218.168276,7.49097097 214.786435,8.62473955 212.853954,9.47506598 L212.572134,7.89588832 L209.150032,8.09834699 L209.150032,28.1822475 L213.216294,28.1822475 Z M247.703936,28.3442145 C250.924738,28.3442145 253.541639,27.5343798 255.5949,26.4411029 L254.065019,22.9993055 C252.615659,23.6066815 250.401358,24.4974997 247.703936,24.4974997 C241.825974,24.4974997 239.933753,20.8937352 239.933753,17.8973469 C239.933753,14.9414502 241.825974,11.3376858 247.703936,11.3376858 C249.676677,11.3376858 252.172798,12.066537 253.662419,12.7144048 L255.23256,9.1511321 C253.461119,8.3412974 250.723438,7.49097097 247.703936,7.49097097 C240.537653,7.49097097 235.867491,11.7021114 235.867491,17.8973469 C235.867491,24.133074 240.537653,28.3442145 247.703936,28.3442145 Z M270.234354,28.3442145 C273.414895,28.3442145 276.836997,27.7368384 278.568178,26.9270038 L277.400637,23.3637311 C275.749976,23.9306154 273.012295,24.4974997 270.314874,24.4974997 C265.725232,24.4974997 263.671971,22.5134046 262.987551,20.0434088 L279.775978,20.1243923 C279.775978,20.1243923 279.937018,18.4642311 279.937018,16.9255452 C279.937018,10.5683428 275.146076,7.49097097 269.992794,7.49097097 C263.068071,7.49097097 258.639469,11.7021114 258.639469,17.8973469 C258.639469,24.133074 263.309631,28.3442145 270.234354,28.3442145 Z M262.826511,16.2776775 C263.349891,13.6052229 265.403152,11.3376858 270.113574,11.3376858 C273.334375,11.3376858 275.790236,12.673913 275.830496,16.196694 L262.826511,16.2776775 Z M319.683531,19.3550493 C319.683531,13.443256 313.725048,12.1070288 307.726305,11.7426031 C302.935363,11.4186693 298.869102,10.9732602 298.869102,8.13883873 C298.869102,4.89949993 302.170423,3.96819003 307.041885,3.96819003 C309.900346,3.96819003 314.208168,4.65654952 316.019869,5.06146687 L316.704289,1.33622725 C314.167908,0.647867759 310.705547,0.16196694 307.041885,0.16196694 C300.841842,0.16196694 294.60154,1.86261981 294.60154,8.30080567 C294.60154,14.5365329 301.244443,15.427351 307.363965,15.8322684 C313.040628,16.196694 315.496489,17.2494791 315.496489,19.7194749 C315.496489,23.7686484 310.866587,24.4974997 305.995125,24.4974997 C302.210683,24.4974997 298.063901,23.7281567 295.93012,23.0802889 L294.88336,26.7245451 C298.265201,27.7773302 301.606783,28.3442145 306.276945,28.3442145 C312.718548,28.3442145 319.683531,26.5625781 319.683531,19.3550493 Z M334.121685,28.3442145 C336.323332,28.3442145 338.193303,28.0662263 338.769735,27.9709161 L338.870224,27.9539544 C338.924491,27.9445858 338.952887,27.9392971 338.952887,27.9392971 L338.550286,24.1735658 C338.550286,24.1735658 336.698326,24.4974997 334.363245,24.4974997 C330.941143,24.4974997 329.371002,23.9306154 329.371002,20.934227 L329.371002,11.5806362 L337.986646,11.5806362 L338.348986,7.81490485 L329.371002,7.81490485 L329.371002,3.03688012 L326.874881,3.32032227 L325.546301,7.81490485 L322.486539,7.81490485 L322.164459,11.5806362 L325.345001,11.5806362 L325.345001,20.934227 C325.345001,27.1699542 329.854123,28.3442145 334.121685,28.3442145 Z M353.391041,28.3442145 C360.557324,28.3442145 365.388526,24.133074 365.388526,17.8973469 C365.388526,11.7021114 360.557324,7.49097097 353.391041,7.49097097 C346.224757,7.49097097 341.433815,11.7021114 341.433815,17.8973469 C341.433815,24.133074 346.224757,28.3442145 353.391041,28.3442145 Z M353.391041,24.4570079 C346.305277,24.4570079 345.540337,19.7599667 345.540337,17.8973469 C345.540337,16.034727 346.305277,11.3781775 353.391041,11.3781775 C360.476804,11.3781775 361.241744,16.034727 361.241744,17.8973469 C361.241744,19.7599667 360.476804,24.4570079 353.391041,24.4570079 Z M374.109757,28.1822475 L374.109757,13.0788304 C375.921458,12.066537 379.142259,11.3376858 381.07474,11.3376858 C383.409821,11.3376858 385.020222,11.7830949 385.020222,11.7830949 L385.905942,7.97687179 C385.905942,7.97687179 384.456582,7.49097097 381.55786,7.49097097 C378.739659,7.49097097 375.599378,8.62473955 373.747417,9.47506598 L373.465597,7.81490485 L370.083755,8.09834699 L370.083755,28.1822475 L374.109757,28.1822475 Z M398.009015,36.5235449 L409,7.81490485 L404.450618,8.01736352 L398.693435,24.3355327 L392.936253,7.89588832 L388.507651,8.09834699 L396.237574,28.1822475 L397.083035,28.1822475 L393.419373,36.5235449 L398.009015,36.5235449 Z" id="PerformanceStory"></path>
                    <path d="M52.2916859,61.4802056 C54.1580796,61.4802056 55.3066295,61.2235033 56.5987482,60.7100986 L55.8968566,58.8008751 C55.0673483,59.1057091 53.7911817,59.4105431 52.2916859,59.4105431 C49.404359,59.4105431 48.4631861,57.8382414 48.4631861,55.8969301 C48.4631861,53.9556188 49.404359,52.399361 52.2916859,52.399361 C53.4402359,52.399361 54.9556837,52.6881511 55.6416233,52.8806779 L56.2158982,50.9072788 C55.2268691,50.570357 53.7433254,50.3296986 52.2916859,50.3296986 C48.8779403,50.3296986 46.2937029,52.0784831 46.2937029,55.8969301 C46.2937029,59.731421 48.8779403,61.4802056 52.2916859,61.4802056 Z M64.7502623,61.41603 L64.7502623,58.3997777 L67.190931,58.3997777 L69.4880308,61.41603 L72.1998848,61.41603 L69.519935,58.0788998 C71.1151432,57.597583 72.2955973,56.522642 72.2955973,54.4208918 C72.2955973,51.2602445 69.6475517,50.3778303 66.9037935,50.3778303 L62.5967312,50.3778303 L62.5967312,61.41603 L64.7502623,61.41603 Z M66.9037935,56.3461592 L64.7502623,56.3461592 L64.7502623,52.4314488 L66.9037935,52.4314488 C69.137085,52.4314488 70.1261141,53.1534241 70.1261141,54.4208918 C70.1261141,55.6723156 69.137085,56.3461592 66.9037935,56.3461592 Z M86.8438966,61.41603 L87.0353215,59.3624114 L80.4311594,59.3624114 L80.4311594,56.683081 L84.6744133,56.683081 L84.8658383,54.6294624 L80.4311594,54.6294624 L80.4311594,52.4314488 L86.8438966,52.4314488 L87.0353215,50.3778303 L78.2776283,50.3778303 L78.2776283,61.41603 L86.8438966,61.41603 Z M94.5008961,61.41603 L95.2985003,59.0575774 L99.9405563,59.0575774 L100.73816,61.41603 L103.003356,61.41603 L99.0631917,50.3778303 L96.1120565,50.5382692 L92.2357004,61.41603 L94.5008961,61.41603 Z M99.2546167,57.0039589 L95.9844398,57.0039589 L97.6275043,52.1907904 L99.2546167,57.0039589 Z M113.053168,61.41603 L113.053168,52.4314488 L117.136901,52.4314488 L117.312374,50.3778303 L106.815904,50.3778303 L106.640431,52.4314488 L110.899637,52.4314488 L110.899637,61.41603 L113.053168,61.41603 Z M131.637344,61.41603 L131.828769,59.3624114 L125.224607,59.3624114 L125.224607,56.683081 L129.467861,56.683081 L129.659286,54.6294624 L125.224607,54.6294624 L125.224607,52.4314488 L131.637344,52.4314488 L131.828769,50.3778303 L123.071076,50.3778303 L123.071076,61.41603 L131.637344,61.41603 Z M152.024105,61.41603 L152.024105,57.2446173 L152.151722,57.2446173 L156.34712,50.3938741 L153.555505,50.5382692 L150.891508,55.2712182 L148.163702,50.3938741 L145.54756,50.5382692 L149.663197,57.2446173 L149.870574,57.2446173 L149.870574,61.41603 L152.024105,61.41603 Z M166.907398,61.4802056 C170.337096,61.4802056 172.96919,59.731421 172.96919,55.912974 C172.96919,52.0784831 170.337096,50.3296986 166.907398,50.3296986 C163.493653,50.3296986 160.861559,52.0784831 160.861559,55.912974 C160.861559,59.731421 163.493653,61.4802056 166.907398,61.4802056 Z M166.907398,59.4105431 C164.020072,59.4105431 163.031042,57.8542853 163.031042,55.912974 C163.031042,53.9716627 164.020072,52.399361 166.907398,52.399361 C169.810677,52.399361 170.783754,53.9716627 170.783754,55.912974 C170.783754,57.8542853 169.810677,59.4105431 166.907398,59.4105431 Z M184.61421,61.4802056 C188.027956,61.4802056 190.277199,59.8116405 190.277199,55.6883595 L190.277199,50.3778303 L188.107716,50.3778303 L188.107716,55.6883595 C188.107716,57.9184609 187.517489,59.4105431 184.61421,59.4105431 C181.710931,59.4105431 181.120704,57.9184609 181.120704,55.6883595 L181.120704,50.3778303 L178.967173,50.3778303 L178.967173,55.6883595 C178.967173,59.8116405 181.200464,61.4802056 184.61421,61.4802056 Z M198.811563,61.41603 L198.811563,58.3997777 L201.252232,58.3997777 L203.549332,61.41603 L206.261186,61.41603 L203.581236,58.0788998 C205.176444,57.597583 206.356898,56.522642 206.356898,54.4208918 C206.356898,51.2602445 203.708853,50.3778303 200.965094,50.3778303 L196.658032,50.3778303 L196.658032,61.41603 L198.811563,61.41603 Z M200.965094,56.3461592 L198.811563,56.3461592 L198.811563,52.4314488 L200.965094,52.4314488 C203.198386,52.4314488 204.187415,53.1534241 204.187415,54.4208918 C204.187415,55.6723156 203.198386,56.3461592 200.965094,56.3461592 Z M226.520331,61.4802056 C229.950028,61.4802056 232.582122,59.731421 232.582122,55.912974 C232.582122,52.0784831 229.950028,50.3296986 226.520331,50.3296986 C223.106585,50.3296986 220.474491,52.0784831 220.474491,55.912974 C220.474491,59.731421 223.106585,61.4802056 226.520331,61.4802056 Z M226.520331,59.4105431 C223.633004,59.4105431 222.643975,57.8542853 222.643975,55.912974 C222.643975,53.9716627 223.633004,52.399361 226.520331,52.399361 C229.42361,52.399361 230.396687,53.9716627 230.396687,55.912974 C230.396687,57.8542853 229.42361,59.4105431 226.520331,59.4105431 Z M243.270017,61.41603 L245.902111,54.0197944 L248.566109,61.41603 L251.373675,61.41603 L254.548139,50.3778303 L252.25104,50.5061814 L249.858227,59.3784553 L246.89114,50.4259619 L244.89713,50.5222253 L241.961946,59.3944992 L239.553182,50.409918 L237.31989,50.5382692 L240.446499,61.41603 L243.270017,61.41603 Z M262.300852,61.41603 L262.189187,53.6026531 L267.198141,61.41603 L269.766426,61.41603 L269.766426,50.3778303 L267.612895,50.3778303 L267.692655,58.1912071 L262.699654,50.3778303 L260.131368,50.3778303 L260.131368,61.41603 L262.300852,61.41603 Z M288.845117,61.4802056 C291.39745,61.4802056 294.268825,60.7261425 294.268825,57.8703292 C294.268825,55.496562 292.117667,54.8916343 289.854855,54.702005 L289.531056,54.6775941 L289.531056,54.6775941 C287.632759,54.5652868 286.452304,54.2123212 286.452304,53.5384776 C286.452304,52.864634 287.377525,52.399361 289.323679,52.399361 C290.456277,52.399361 292.16315,52.6560633 292.865042,52.8325462 L293.3117,50.8110154 C292.290767,50.5382692 290.759367,50.3296986 289.323679,50.3296986 C286.867059,50.3296986 284.282821,51.0516738 284.282821,53.618697 C284.282821,56.073413 286.962771,56.6028615 289.40344,56.7472566 C291.636731,56.8916516 292.099342,57.3408807 292.099342,58.0147243 C292.099342,59.1859286 290.679606,59.4105431 288.733452,59.4105431 C287.233956,59.4105431 285.590892,59.0896652 284.745432,58.8490068 L284.171157,60.806362 C285.511132,61.2395472 286.994675,61.4802056 288.845117,61.4802056 Z M305.610755,61.41603 L305.610755,52.4314488 L309.694489,52.4314488 L309.869961,50.3778303 L299.373491,50.3778303 L299.198018,52.4314488 L303.457224,52.4314488 L303.457224,61.41603 L305.610755,61.41603 Z M320.829042,61.4802056 C324.25874,61.4802056 326.890833,59.731421 326.890833,55.912974 C326.890833,52.0784831 324.25874,50.3296986 320.829042,50.3296986 C317.415296,50.3296986 314.783203,52.0784831 314.783203,55.912974 C314.783203,59.731421 317.415296,61.4802056 320.829042,61.4802056 Z M320.829042,59.4105431 C317.941715,59.4105431 316.952686,57.8542853 316.952686,55.912974 C316.952686,53.9716627 317.941715,52.399361 320.829042,52.399361 C323.732321,52.399361 324.705398,53.9716627 324.705398,55.912974 C324.705398,57.8542853 323.732321,59.4105431 320.829042,59.4105431 Z M335.026396,61.41603 L335.026396,58.3997777 L337.467064,58.3997777 L339.764164,61.41603 L342.476018,61.41603 L339.796068,58.0788998 C341.391276,57.597583 342.571731,56.522642 342.571731,54.4208918 C342.571731,51.2602445 339.923685,50.3778303 337.179927,50.3778303 L332.872864,50.3778303 L332.872864,61.41603 L335.026396,61.41603 Z M337.179927,56.3461592 L335.026396,56.3461592 L335.026396,52.4314488 L337.179927,52.4314488 C339.413218,52.4314488 340.402247,53.1534241 340.402247,54.4208918 C340.402247,55.6723156 339.413218,56.3461592 337.179927,56.3461592 Z M353.578667,61.41603 L353.578667,57.2446173 L353.706284,57.2446173 L357.901682,50.3938741 L355.110067,50.5382692 L352.44607,55.2712182 L349.718263,50.3938741 L347.102122,50.5382692 L351.217759,57.2446173 L351.425136,57.2446173 L351.425136,61.41603 L353.578667,61.41603 Z" id="CREATEYOUROWNSTORY"></path>
                </g>
                <path d="M221.251559,17.0949676 C222.207327,17.0949676 222.658974,17.9996666 222.26034,19.1156692 C216.047289,36.5759675 211.387501,49.6711912 208.280975,58.4013404 C205.849023,65.2357627 201.296578,69 194.630518,69 L180.209102,69 L180.209102,69 C179.253334,69 178.801687,68.0953011 179.200321,66.9792984 C185.66787,48.803794 190.518532,35.1721656 193.752307,26.0844134 C195.620241,20.8350284 199.630914,17.0949676 207.381933,17.0949676 L221.251559,17.0949676 L221.251559,17.0949676 Z M180.245439,42.3301977 C181.201208,42.3301977 181.652854,43.2348966 181.25422,44.3508993 C178.892173,50.9636088 177.970345,53.5843972 177.176816,55.8375014 L177.058585,56.1731625 C177.019386,56.2844323 176.980344,56.3952359 176.941294,56.5060264 L176.823961,56.8388114 L176.823961,56.8388114 L176.705599,57.1742357 C176.347991,58.1871857 175.963231,59.2724613 175.43177,60.7603209 C173.35257,66.5811829 170.243445,69 163.336631,69 L148.190861,69 L148.190861,69 C147.068498,69 146.757363,68.1683213 147.18208,66.9792984 C149.592489,60.2311963 150.426859,57.8511482 151.203128,55.6458044 L151.313792,55.3314909 C151.719314,54.1800454 152.128727,53.0217463 152.76019,51.2539211 C155.225936,44.3508993 159.118282,42.3301977 164.522391,42.3301977 L180.245439,42.3301977 L180.245439,42.3301977 Z M259.846239,0 C260.802007,0 261.253654,0.904698921 260.85502,2.0207016 C254.641969,19.4809999 249.982181,32.5762236 246.875656,41.3063727 C244.443703,48.1407951 239.891259,51.9050324 233.225198,51.9050324 L218.803783,51.9050324 L218.803783,51.9050324 C217.848014,51.9050324 217.396368,51.0003334 217.795002,49.8843308 C224.262551,31.7088263 229.113212,18.077198 232.346987,8.98944578 C233.340337,6.19787045 234.939658,3.83313444 237.385214,2.23072113 C239.538376,0.819895136 242.347515,0 245.976613,0 L259.846239,0 L259.846239,0 Z" id="Combined-Shape-Copy-2" fill="url(#linearGradient-1)"></path>
            </g>
        </g>
    </g>
</svg>