<svg width="213" height="27" viewBox="0 0 213 27" fill="none" xmlns="http://www.w3.org/2000/svg">
<path fill-rule="evenodd" clip-rule="evenodd" d="M28.7696 7.03644C29.1399 7.03644 29.3149 7.37969 29.1604 7.80311C26.7531 14.4277 24.9476 19.3961 23.744 22.7083C22.8017 25.3014 21.0378 26.7295 18.4549 26.7295H12.8672C12.4969 26.7295 12.3219 26.3863 12.4764 25.9629C14.9823 19.067 16.8617 13.895 18.1147 10.4471C18.8384 8.45545 20.3924 7.03644 23.3956 7.03644H28.7696ZM12.8813 16.6108C13.2516 16.6108 13.4266 16.9541 13.2722 17.3775C12.274 20.1139 11.9396 21.0486 11.6095 21.9657L11.5331 22.1779C11.3879 22.581 11.2337 23.007 11.0162 23.6034C10.2106 25.8118 9.00592 26.7295 6.3298 26.7295H0.461412C0.0265403 26.7295 -0.0940121 26.414 0.0705488 25.9629C0.95618 23.535 1.2927 22.5974 1.58161 21.7935L1.63077 21.6567L1.67955 21.521C1.83404 21.0915 1.9914 20.6557 2.23185 19.9966C3.18723 17.3775 4.69536 16.6108 6.78924 16.6108H12.8813ZM43.7235 0.550507C44.0938 0.550507 44.2688 0.893755 44.1143 1.31717C41.707 7.94172 39.9015 12.9101 38.6979 16.2224C37.7556 18.8154 35.9917 20.2436 33.4089 20.2436H27.8211C27.4508 20.2436 27.2758 19.9004 27.4303 19.4769C29.9362 12.581 31.8156 7.40911 33.0686 3.96116C33.4535 2.90202 34.0732 2.00482 35.0207 1.39686C35.855 0.86158 36.9434 0.550507 38.3495 0.550507H43.7235Z" fill="white"/>
<path d="M56.1663 15.495V12.63H58.8171C61.4991 12.63 63.9316 11.8417 63.9316 8.87058C63.9316 5.89946 61.4991 5.05057 58.8171 5.05057H54.5914V15.495H56.1663ZM58.8171 11.2202H56.1663V6.46034H58.8171C60.9846 6.46034 62.2944 7.11216 62.2944 8.87058C62.2944 10.629 60.9846 11.2202 58.8171 11.2202ZM69.6016 15.5556C70.8334 15.5556 72.1588 15.3282 72.8293 15.025L72.3771 13.6911C71.7378 13.9033 70.6775 14.1155 69.6328 14.1155C67.8552 14.1155 67.0599 13.3727 66.7949 12.4481L73.2971 12.4784C73.2971 12.4784 73.3595 11.8569 73.3595 11.2808C73.3595 8.9009 71.5039 7.74883 69.508 7.74883C66.826 7.74883 65.1108 9.32535 65.1108 11.6446C65.1108 13.9791 66.9196 15.5556 69.6016 15.5556ZM66.7325 11.0383C66.9352 10.0378 67.7304 9.18892 69.5548 9.18892C70.8023 9.18892 71.7534 9.68916 71.769 11.008L66.7325 11.0383ZM76.7217 15.495V9.84074C77.4234 9.46178 78.6708 9.18892 79.4193 9.18892C80.3237 9.18892 80.9474 9.35566 80.9474 9.35566L81.2905 7.93074C81.2905 7.93074 80.7291 7.74883 79.6064 7.74883C78.5149 7.74883 77.2987 8.17328 76.5814 8.49161L76.4722 7.8701L75.1624 7.97621V15.495H76.7217ZM85.4791 15.495V9.27987H88.8316L88.9563 7.8701H85.4791V7.70336C85.4791 6.73319 85.8221 6.36938 87.3502 6.36938C88.1611 6.36938 88.8784 6.49065 89.0187 6.52097L89.2214 5.14152C88.9251 5.08089 88.0831 4.94446 87.2411 4.94446C85.6974 4.94446 83.9198 5.38406 83.9198 7.70336V7.8701H82.5944L82.4696 9.27987H83.9198V15.495H85.4791ZM94.3456 15.5556C97.1212 15.5556 98.9923 13.9791 98.9923 11.6446C98.9923 9.32535 97.1212 7.74883 94.3456 7.74883C91.5701 7.74883 89.7145 9.32535 89.7145 11.6446C89.7145 13.9791 91.5701 15.5556 94.3456 15.5556ZM94.3456 14.1004C91.6012 14.1004 91.305 12.3419 91.305 11.6446C91.305 10.9473 91.6012 9.20408 94.3456 9.20408C97.09 9.20408 97.3862 10.9473 97.3862 11.6446C97.3862 12.3419 97.09 14.1004 94.3456 14.1004ZM102.37 15.495V9.84074C103.072 9.46178 104.319 9.18892 105.068 9.18892C105.972 9.18892 106.596 9.35566 106.596 9.35566L106.939 7.93074C106.939 7.93074 106.378 7.74883 105.255 7.74883C104.163 7.74883 102.947 8.17328 102.23 8.49161L102.121 7.8701L100.811 7.97621V15.495H102.37ZM110.301 15.495V9.79527C111.112 9.44662 112.266 9.18892 112.999 9.18892C114.792 9.18892 115.166 9.9317 115.166 11.2354V15.495H116.741V11.2354C116.741 10.6442 116.647 10.1136 116.46 9.674C117.256 9.38598 118.285 9.18892 118.924 9.18892C120.717 9.18892 121.091 9.9317 121.091 11.2354L121.107 15.495H122.666V11.2354C122.666 9.00701 121.31 7.74883 119.111 7.74883C117.895 7.74883 116.398 8.27939 115.727 8.61288C115.104 8.05201 114.231 7.74883 113.17 7.74883C112.094 7.74883 110.894 8.17328 110.161 8.49161L110.052 7.8701L108.726 7.97621V15.495H110.301ZM128.82 15.5556C129.911 15.5556 131.003 15.2221 131.767 14.8431L131.876 15.495H133.201V7.97621L131.876 7.90042L131.751 8.49161C131.034 8.17328 129.849 7.74883 128.773 7.74883C126.106 7.74883 124.454 9.32535 124.454 11.6446C124.454 13.9791 126.138 15.5556 128.82 15.5556ZM128.96 14.1155C126.543 14.1155 126.029 12.9028 126.029 11.6446C126.029 10.3865 126.543 9.18892 128.96 9.18892C129.708 9.18892 130.831 9.44662 131.626 9.81043V13.5395C131.018 13.7669 129.942 14.1155 128.96 14.1155ZM137.172 15.495V9.79527C137.998 9.44662 139.245 9.18892 139.978 9.18892C142.208 9.18892 142.582 9.9317 142.582 11.2354L142.598 15.495H144.157V11.2354C144.157 9.00701 142.645 7.74883 140.15 7.74883C139.09 7.74883 137.78 8.17328 137.031 8.49161L136.922 7.90042L135.597 7.97621V15.495H137.172ZM150.529 15.5556C151.776 15.5556 152.79 15.2524 153.585 14.8431L152.993 13.5546C152.431 13.782 151.574 14.1155 150.529 14.1155C148.252 14.1155 147.519 12.7664 147.519 11.6446C147.519 10.538 148.252 9.18892 150.529 9.18892C151.293 9.18892 152.26 9.46178 152.837 9.70432L153.445 8.37034C152.759 8.06717 151.698 7.74883 150.529 7.74883C147.753 7.74883 145.945 9.32535 145.945 11.6446C145.945 13.9791 147.753 15.5556 150.529 15.5556ZM159.255 15.5556C160.487 15.5556 161.812 15.3282 162.483 15.025L162.031 13.6911C161.391 13.9033 160.331 14.1155 159.286 14.1155C157.509 14.1155 156.713 13.3727 156.448 12.4481L162.951 12.4784C162.951 12.4784 163.013 11.8569 163.013 11.2808C163.013 8.9009 161.157 7.74883 159.162 7.74883C156.48 7.74883 154.764 9.32535 154.764 11.6446C154.764 13.9791 156.573 15.5556 159.255 15.5556ZM156.386 11.0383C156.589 10.0378 157.384 9.18892 159.208 9.18892C160.456 9.18892 161.407 9.68916 161.423 11.008L156.386 11.0383ZM178.407 12.1904C178.407 9.97717 176.099 9.47693 173.776 9.34051C171.92 9.21923 170.346 9.05249 170.346 7.99137C170.346 6.77867 171.624 6.43002 173.511 6.43002C174.618 6.43002 176.286 6.68772 176.988 6.83931L177.253 5.4447C176.271 5.187 174.93 5.00509 173.511 5.00509C171.11 5.00509 168.693 5.64176 168.693 8.05201C168.693 10.3865 171.266 10.72 173.636 10.8715C175.834 11.008 176.785 11.4021 176.785 12.3268C176.785 13.8427 174.992 14.1155 173.106 14.1155C171.64 14.1155 170.034 13.8275 169.207 13.585L168.802 14.9493C170.112 15.3434 171.406 15.5556 173.215 15.5556C175.71 15.5556 178.407 14.8886 178.407 12.1904ZM183.999 15.5556C184.852 15.5556 185.576 15.4515 185.799 15.4159L185.838 15.4095C185.859 15.406 185.87 15.404 185.87 15.404L185.714 13.9943C185.714 13.9943 184.997 14.1155 184.093 14.1155C182.767 14.1155 182.159 13.9033 182.159 12.7815V9.27987H185.496L185.636 7.8701H182.159V6.08137L181.192 6.18748L180.678 7.8701H179.493L179.368 9.27987H180.6V12.7815C180.6 15.116 182.346 15.5556 183.999 15.5556ZM191.462 15.5556C194.238 15.5556 196.109 13.9791 196.109 11.6446C196.109 9.32535 194.238 7.74883 191.462 7.74883C188.687 7.74883 186.831 9.32535 186.831 11.6446C186.831 13.9791 188.687 15.5556 191.462 15.5556ZM191.462 14.1004C188.718 14.1004 188.422 12.3419 188.422 11.6446C188.422 10.9473 188.718 9.20408 191.462 9.20408C194.207 9.20408 194.503 10.9473 194.503 11.6446C194.503 12.3419 194.207 14.1004 191.462 14.1004ZM199.487 15.495V9.84074C200.188 9.46178 201.436 9.18892 202.184 9.18892C203.089 9.18892 203.713 9.35566 203.713 9.35566L204.056 7.93074C204.056 7.93074 203.494 7.74883 202.372 7.74883C201.28 7.74883 200.064 8.17328 199.346 8.49161L199.237 7.8701L197.928 7.97621V15.495H199.487ZM208.743 18.6177L213 7.8701L211.238 7.9459L209.008 14.0549L206.778 7.90042L205.063 7.97621L208.057 15.495H208.385L206.966 18.6177H208.743Z" fill="white"/>
<path d="M56.3093 25.4889C57.0321 25.4889 57.477 25.3928 57.9774 25.2006L57.7056 24.4859C57.3843 24.6 56.89 24.7141 56.3093 24.7141C55.191 24.7141 54.8265 24.1255 54.8265 23.3987C54.8265 22.6719 55.191 22.0893 56.3093 22.0893C56.7541 22.0893 57.3411 22.1974 57.6067 22.2695L57.8291 21.5307C57.4461 21.4046 56.8715 21.3145 56.3093 21.3145C54.9871 21.3145 53.9862 21.9692 53.9862 23.3987C53.9862 24.8342 54.9871 25.4889 56.3093 25.4889ZM61.1346 25.4649V24.3357H62.0799L62.9695 25.4649H64.0199L62.9819 24.2156C63.5997 24.0354 64.0569 23.633 64.0569 22.8461C64.0569 21.6629 63.0313 21.3325 61.9686 21.3325H60.3005V25.4649H61.1346ZM61.9686 23.5669H61.1346V22.1013H61.9686C62.8336 22.1013 63.2167 22.3716 63.2167 22.8461C63.2167 23.3146 62.8336 23.5669 61.9686 23.5669ZM69.6916 25.4649L69.7657 24.6961H67.2079V23.693H68.8513L68.9255 22.9242H67.2079V22.1013H69.6916L69.7657 21.3325H66.3738V25.4649H69.6916ZM72.6572 25.4649L72.9661 24.582H74.764L75.0729 25.4649H75.9503L74.4242 21.3325L73.2812 21.3926L71.7799 25.4649H72.6572ZM74.4984 23.8131H73.2318L73.8682 22.0112L74.4984 23.8131ZM79.8426 25.4649V22.1013H81.4243L81.4923 21.3325H77.4269L77.3589 22.1013H79.0086V25.4649H79.8426ZM87.0404 25.4649L87.1146 24.6961H84.5567V23.693H86.2002L86.2743 22.9242H84.5567V22.1013H87.0404L87.1146 21.3325H83.7226V25.4649H87.0404ZM94.9364 25.4649V23.9032H94.9858L96.6107 21.3385L95.5295 21.3926L94.4977 23.1645L93.4412 21.3385L92.4279 21.3926L94.022 23.9032H94.1023V25.4649H94.9364ZM100.701 25.4889C102.029 25.4889 103.049 24.8342 103.049 23.4047C103.049 21.9692 102.029 21.3145 100.701 21.3145C99.3786 21.3145 98.3592 21.9692 98.3592 23.4047C98.3592 24.8342 99.3786 25.4889 100.701 25.4889ZM100.701 24.7141C99.5825 24.7141 99.1994 24.1315 99.1994 23.4047C99.1994 22.6779 99.5825 22.0893 100.701 22.0893C101.825 22.0893 102.202 22.6779 102.202 23.4047C102.202 24.1315 101.825 24.7141 100.701 24.7141ZM107.559 25.4889C108.881 25.4889 109.752 24.8642 109.752 23.3206V21.3325H108.912V23.3206C108.912 24.1555 108.683 24.7141 107.559 24.7141C106.434 24.7141 106.206 24.1555 106.206 23.3206V21.3325H105.372V23.3206C105.372 24.8642 106.237 25.4889 107.559 25.4889ZM113.057 25.4649V24.3357H114.003L114.892 25.4649H115.943L114.905 24.2156C115.523 24.0354 115.98 23.633 115.98 22.8461C115.98 21.6629 114.954 21.3325 113.892 21.3325H112.223V25.4649H113.057ZM113.892 23.5669H113.057V22.1013H113.892C114.757 22.1013 115.14 22.3716 115.14 22.8461C115.14 23.3146 114.757 23.5669 113.892 23.5669ZM123.789 25.4889C125.118 25.4889 126.137 24.8342 126.137 23.4047C126.137 21.9692 125.118 21.3145 123.789 21.3145C122.467 21.3145 121.448 21.9692 121.448 23.4047C121.448 24.8342 122.467 25.4889 123.789 25.4889ZM123.789 24.7141C122.671 24.7141 122.288 24.1315 122.288 23.4047C122.288 22.6779 122.671 22.0893 123.789 22.0893C124.914 22.0893 125.291 22.6779 125.291 23.4047C125.291 24.1315 124.914 24.7141 123.789 24.7141ZM130.277 25.4649L131.296 22.696L132.328 25.4649H133.415L134.645 21.3325L133.755 21.3806L132.828 24.7021L131.679 21.3506L130.907 21.3866L129.77 24.7081L128.837 21.3445L127.972 21.3926L129.183 25.4649H130.277ZM137.647 25.4649L137.604 22.5398L139.544 25.4649H140.539V21.3325H139.705L139.736 24.2576L137.802 21.3325H136.807V25.4649H137.647ZM147.928 25.4889C148.917 25.4889 150.029 25.2066 150.029 24.1375C150.029 23.2488 149.196 23.0224 148.319 22.9514L148.194 22.9422C147.459 22.9002 147.001 22.768 147.001 22.5158C147.001 22.2635 147.36 22.0893 148.113 22.0893C148.552 22.0893 149.213 22.1854 149.485 22.2515L149.658 21.4947C149.263 21.3926 148.67 21.3145 148.113 21.3145C147.162 21.3145 146.161 21.5848 146.161 22.5458C146.161 23.4648 147.199 23.663 148.144 23.717C149.009 23.7711 149.189 23.9393 149.189 24.1915C149.189 24.63 148.639 24.7141 147.885 24.7141C147.304 24.7141 146.668 24.594 146.34 24.5039L146.118 25.2366C146.637 25.3988 147.211 25.4889 147.928 25.4889ZM154.422 25.4649V22.1013H156.003L156.071 21.3325H152.006L151.938 22.1013H153.588V25.4649H154.422ZM160.316 25.4889C161.644 25.4889 162.664 24.8342 162.664 23.4047C162.664 21.9692 161.644 21.3145 160.316 21.3145C158.994 21.3145 157.974 21.9692 157.974 23.4047C157.974 24.8342 158.994 25.4889 160.316 25.4889ZM160.316 24.7141C159.197 24.7141 158.814 24.1315 158.814 23.4047C158.814 22.6779 159.197 22.0893 160.316 22.0893C161.44 22.0893 161.817 22.6779 161.817 23.4047C161.817 24.1315 161.44 24.7141 160.316 24.7141ZM165.814 25.4649V24.3357H166.76L167.649 25.4649H168.7L167.662 24.2156C168.28 24.0354 168.737 23.633 168.737 22.8461C168.737 21.6629 167.711 21.3325 166.649 21.3325H164.98V25.4649H165.814ZM166.649 23.5669H165.814V22.1013H166.649C167.514 22.1013 167.897 22.3716 167.897 22.8461C167.897 23.3146 167.514 23.5669 166.649 23.5669ZM173 25.4649V23.9032H173.049L174.674 21.3385L173.593 21.3926L172.561 23.1645L171.505 21.3385L170.491 21.3926L172.086 23.9032H172.166V25.4649H173Z" fill="white"/>
</svg>
